<mxfile host="app.diagrams.net" agent="Mozilla/5.0 (Windows NT 10.0; Win64; x64) AppleWebKit/537.36 (KHTML, like Gecko) Chrome/128.0.0.0 Safari/537.36 OPR/114.0.0.0" version="24.9.3">
  <diagram name="PÃ¡gina-1" id="ZYrXFXTMh5Co8lFkQm1W">
    <mxGraphModel dx="1684" dy="452" grid="1" gridSize="10" guides="1" tooltips="1" connect="1" arrows="1" fold="1" page="1" pageScale="1" pageWidth="827" pageHeight="1169" math="0" shadow="0">
      <root>
        <mxCell id="0" />
        <mxCell id="1" parent="0" />
        <mxCell id="eIzoueygHuHwb89tyksf-4" value="&lt;font style=&quot;font-size: 18px;&quot;&gt;Cliente&lt;/font&gt;" style="text;html=1;align=center;verticalAlign=middle;resizable=0;points=[];autosize=1;strokeColor=none;fillColor=none;" parent="1" vertex="1">
          <mxGeometry x="280" y="30" width="80" height="40" as="geometry" />
        </mxCell>
        <mxCell id="xBQm6iWofpUOaXLiv4rK-18" value="&lt;font style=&quot;font-size: 14px;&quot; color=&quot;#ffffff&quot;&gt;GeekShopping WebApp&lt;/font&gt;" style="rounded=1;whiteSpace=wrap;html=1;fillColor=#00BFFF;" vertex="1" parent="1">
          <mxGeometry x="260" y="200" width="120" height="60" as="geometry" />
        </mxCell>
        <mxCell id="xBQm6iWofpUOaXLiv4rK-19" value="&lt;div&gt;&lt;font style=&quot;font-size: 14px;&quot; color=&quot;#ffffff&quot;&gt;&amp;nbsp; &amp;nbsp; &amp;nbsp; &amp;nbsp;IdentityServer&lt;/font&gt;&lt;/div&gt;" style="rounded=1;whiteSpace=wrap;html=1;fillColor=#00BFFF;fontColor=default;" vertex="1" parent="1">
          <mxGeometry x="506" y="200" width="150" height="60" as="geometry" />
        </mxCell>
        <mxCell id="xBQm6iWofpUOaXLiv4rK-23" value="" style="edgeStyle=orthogonalEdgeStyle;rounded=0;orthogonalLoop=1;jettySize=auto;html=1;" edge="1" parent="1" source="xBQm6iWofpUOaXLiv4rK-24" target="xBQm6iWofpUOaXLiv4rK-18">
          <mxGeometry relative="1" as="geometry">
            <mxPoint x="320" y="145" as="sourcePoint" />
          </mxGeometry>
        </mxCell>
        <mxCell id="xBQm6iWofpUOaXLiv4rK-24" value="" style="sketch=0;outlineConnect=0;fontColor=#232F3E;gradientColor=none;fillColor=#0000CD;strokeColor=none;dashed=0;verticalLabelPosition=bottom;verticalAlign=top;align=center;html=1;fontSize=12;fontStyle=0;aspect=fixed;pointerEvents=1;shape=mxgraph.aws4.user;" vertex="1" parent="1">
          <mxGeometry x="280" y="75" width="80" height="80" as="geometry" />
        </mxCell>
        <mxCell id="xBQm6iWofpUOaXLiv4rK-17" value="" style="shape=image;verticalLabelPosition=bottom;labelBackgroundColor=default;verticalAlign=top;aspect=fixed;imageAspect=0;image=https://clipart-library.com/images/6cro4BBEi.png;" vertex="1" parent="1">
          <mxGeometry x="630" y="230" width="50" height="50" as="geometry" />
        </mxCell>
        <mxCell id="xBQm6iWofpUOaXLiv4rK-27" value="&lt;font style=&quot;font-size: 14px;&quot; color=&quot;#ffffff&quot;&gt;&amp;nbsp; &amp;nbsp; &amp;nbsp; &amp;nbsp; &amp;nbsp; &amp;nbsp; &amp;nbsp; API Gateway&lt;/font&gt;" style="rounded=1;whiteSpace=wrap;html=1;fillColor=#00BFFF;" vertex="1" parent="1">
          <mxGeometry x="240.2" y="320" width="160" height="60" as="geometry" />
        </mxCell>
        <mxCell id="xBQm6iWofpUOaXLiv4rK-28" value="" style="shape=image;verticalLabelPosition=bottom;labelBackgroundColor=default;verticalAlign=top;aspect=fixed;imageAspect=0;image=https://miro.medium.com/v2/resize:fit:301/0*f5W2pNADZdajDy3e.png;" vertex="1" parent="1">
          <mxGeometry x="250.2" y="325" width="42.28" height="50" as="geometry" />
        </mxCell>
        <mxCell id="xBQm6iWofpUOaXLiv4rK-34" value="" style="endArrow=classic;startArrow=classic;html=1;rounded=0;entryX=0.5;entryY=1;entryDx=0;entryDy=0;" edge="1" parent="1" source="xBQm6iWofpUOaXLiv4rK-27" target="xBQm6iWofpUOaXLiv4rK-18">
          <mxGeometry width="50" height="50" relative="1" as="geometry">
            <mxPoint x="450" y="390" as="sourcePoint" />
            <mxPoint x="500" y="340" as="targetPoint" />
          </mxGeometry>
        </mxCell>
        <mxCell id="xBQm6iWofpUOaXLiv4rK-35" value="" style="endArrow=classic;startArrow=classic;html=1;rounded=0;entryX=0;entryY=0.5;entryDx=0;entryDy=0;exitX=1;exitY=0.5;exitDx=0;exitDy=0;" edge="1" parent="1" source="xBQm6iWofpUOaXLiv4rK-18" target="xBQm6iWofpUOaXLiv4rK-19">
          <mxGeometry width="50" height="50" relative="1" as="geometry">
            <mxPoint x="330" y="370" as="sourcePoint" />
            <mxPoint x="330" y="270" as="targetPoint" />
          </mxGeometry>
        </mxCell>
        <object placeholders="1" c4Name="GeekShopping" c4Type="ContainerScopeBoundary" c4Application="Container" label="&lt;font style=&quot;font-size: 16px&quot;&gt;&lt;b&gt;&lt;div style=&quot;text-align: left&quot;&gt;%c4Name%&lt;/div&gt;&lt;/b&gt;&lt;/font&gt;&lt;div style=&quot;text-align: left&quot;&gt;[%c4Application%]&lt;/div&gt;" id="xBQm6iWofpUOaXLiv4rK-40">
          <mxCell style="rounded=1;fontSize=11;whiteSpace=wrap;html=1;dashed=1;arcSize=20;fillColor=#F5F5DC;strokeColor=#666666;fontColor=#333333;labelBackgroundColor=none;align=left;verticalAlign=bottom;labelBorderColor=none;spacingTop=0;spacing=10;dashPattern=8 4;metaEdit=1;rotatable=0;perimeter=rectanglePerimeter;noLabel=0;labelPadding=0;allowArrows=0;connectable=0;expand=0;recursiveResize=0;editable=1;pointerEvents=0;absoluteArcSize=1;points=[[0.25,0,0],[0.5,0,0],[0.75,0,0],[1,0.25,0],[1,0.5,0],[1,0.75,0],[0.75,1,0],[0.5,1,0],[0.25,1,0],[0,0.75,0],[0,0.5,0],[0,0.25,0]];" vertex="1" parent="1">
            <mxGeometry x="-40" y="452" width="720" height="388" as="geometry" />
          </mxCell>
        </object>
        <mxCell id="xBQm6iWofpUOaXLiv4rK-41" value="&lt;font style=&quot;font-size: 14px;&quot; color=&quot;#ffffff&quot;&gt;&amp;nbsp; &amp;nbsp; &amp;nbsp; &amp;nbsp;ProductAPI&lt;/font&gt;" style="rounded=1;whiteSpace=wrap;html=1;fillColor=#00BFFF;" vertex="1" parent="1">
          <mxGeometry x="-20" y="495" width="140" height="60" as="geometry" />
        </mxCell>
        <mxCell id="xBQm6iWofpUOaXLiv4rK-45" value="" style="shape=image;verticalLabelPosition=bottom;labelBackgroundColor=default;verticalAlign=top;aspect=fixed;imageAspect=0;image=https://upload.wikimedia.org/wikipedia/commons/thumb/e/ee/.NET_Core_Logo.svg/1200px-.NET_Core_Logo.svg.png;" vertex="1" parent="1">
          <mxGeometry x="-10" y="510" width="30" height="30" as="geometry" />
        </mxCell>
        <mxCell id="xBQm6iWofpUOaXLiv4rK-47" value="" style="shape=image;verticalLabelPosition=bottom;labelBackgroundColor=default;verticalAlign=top;aspect=fixed;imageAspect=0;image=https://clipart-library.com/images/6cro4BBEi.png;" vertex="1" parent="1">
          <mxGeometry x="90" y="520" width="50" height="50" as="geometry" />
        </mxCell>
        <mxCell id="xBQm6iWofpUOaXLiv4rK-52" value="" style="endArrow=classic;startArrow=classic;html=1;rounded=0;entryX=0.5;entryY=1;entryDx=0;entryDy=0;exitX=0.5;exitY=0;exitDx=0;exitDy=0;" edge="1" parent="1" source="xBQm6iWofpUOaXLiv4rK-41" target="xBQm6iWofpUOaXLiv4rK-27">
          <mxGeometry width="50" height="50" relative="1" as="geometry">
            <mxPoint x="100" y="430" as="sourcePoint" />
            <mxPoint x="100" y="330" as="targetPoint" />
          </mxGeometry>
        </mxCell>
        <mxCell id="xBQm6iWofpUOaXLiv4rK-53" value="&lt;font style=&quot;font-size: 14px;&quot; color=&quot;#ffffff&quot;&gt;&amp;nbsp; &amp;nbsp; &amp;nbsp; &amp;nbsp;CouponAPI&lt;/font&gt;" style="rounded=1;whiteSpace=wrap;html=1;fillColor=#00BFFF;" vertex="1" parent="1">
          <mxGeometry x="515" y="495" width="140" height="60" as="geometry" />
        </mxCell>
        <mxCell id="xBQm6iWofpUOaXLiv4rK-54" value="" style="shape=image;verticalLabelPosition=bottom;labelBackgroundColor=default;verticalAlign=top;aspect=fixed;imageAspect=0;image=https://upload.wikimedia.org/wikipedia/commons/thumb/e/ee/.NET_Core_Logo.svg/1200px-.NET_Core_Logo.svg.png;" vertex="1" parent="1">
          <mxGeometry x="525" y="510" width="30" height="30" as="geometry" />
        </mxCell>
        <mxCell id="xBQm6iWofpUOaXLiv4rK-55" value="" style="shape=image;verticalLabelPosition=bottom;labelBackgroundColor=default;verticalAlign=top;aspect=fixed;imageAspect=0;image=https://clipart-library.com/images/6cro4BBEi.png;" vertex="1" parent="1">
          <mxGeometry x="630" y="520" width="50" height="50" as="geometry" />
        </mxCell>
        <mxCell id="xBQm6iWofpUOaXLiv4rK-56" value="" style="endArrow=classic;startArrow=classic;html=1;rounded=0;entryX=0.5;entryY=1;entryDx=0;entryDy=0;exitX=0.5;exitY=0;exitDx=0;exitDy=0;" edge="1" parent="1" source="xBQm6iWofpUOaXLiv4rK-53" target="xBQm6iWofpUOaXLiv4rK-27">
          <mxGeometry width="50" height="50" relative="1" as="geometry">
            <mxPoint x="60" y="505" as="sourcePoint" />
            <mxPoint x="330" y="420" as="targetPoint" />
          </mxGeometry>
        </mxCell>
        <mxCell id="xBQm6iWofpUOaXLiv4rK-57" value="&lt;font style=&quot;font-size: 14px;&quot; color=&quot;#ffffff&quot;&gt;&amp;nbsp; &amp;nbsp; &amp;nbsp; &amp;nbsp;CartPI&lt;/font&gt;" style="rounded=1;whiteSpace=wrap;html=1;fillColor=#00BFFF;" vertex="1" parent="1">
          <mxGeometry x="340" y="495" width="140" height="60" as="geometry" />
        </mxCell>
        <mxCell id="xBQm6iWofpUOaXLiv4rK-58" value="" style="shape=image;verticalLabelPosition=bottom;labelBackgroundColor=default;verticalAlign=top;aspect=fixed;imageAspect=0;image=https://upload.wikimedia.org/wikipedia/commons/thumb/e/ee/.NET_Core_Logo.svg/1200px-.NET_Core_Logo.svg.png;" vertex="1" parent="1">
          <mxGeometry x="350" y="510" width="30" height="30" as="geometry" />
        </mxCell>
        <mxCell id="xBQm6iWofpUOaXLiv4rK-59" value="" style="shape=image;verticalLabelPosition=bottom;labelBackgroundColor=default;verticalAlign=top;aspect=fixed;imageAspect=0;image=https://clipart-library.com/images/6cro4BBEi.png;" vertex="1" parent="1">
          <mxGeometry x="450.4" y="520" width="50" height="50" as="geometry" />
        </mxCell>
        <mxCell id="xBQm6iWofpUOaXLiv4rK-60" value="&lt;font style=&quot;font-size: 14px;&quot; color=&quot;#ffffff&quot;&gt;&amp;nbsp; &amp;nbsp; &amp;nbsp; &amp;nbsp;OrderAPI&lt;/font&gt;" style="rounded=1;whiteSpace=wrap;html=1;fillColor=#00BFFF;" vertex="1" parent="1">
          <mxGeometry x="159.60000000000002" y="495" width="140" height="60" as="geometry" />
        </mxCell>
        <mxCell id="xBQm6iWofpUOaXLiv4rK-61" value="" style="shape=image;verticalLabelPosition=bottom;labelBackgroundColor=default;verticalAlign=top;aspect=fixed;imageAspect=0;image=https://upload.wikimedia.org/wikipedia/commons/thumb/e/ee/.NET_Core_Logo.svg/1200px-.NET_Core_Logo.svg.png;" vertex="1" parent="1">
          <mxGeometry x="169.60000000000002" y="510" width="30" height="30" as="geometry" />
        </mxCell>
        <mxCell id="xBQm6iWofpUOaXLiv4rK-62" value="" style="shape=image;verticalLabelPosition=bottom;labelBackgroundColor=default;verticalAlign=top;aspect=fixed;imageAspect=0;image=https://clipart-library.com/images/6cro4BBEi.png;" vertex="1" parent="1">
          <mxGeometry x="269.6" y="520" width="50" height="50" as="geometry" />
        </mxCell>
        <mxCell id="xBQm6iWofpUOaXLiv4rK-63" value="" style="endArrow=classic;startArrow=classic;html=1;rounded=0;entryX=0.5;entryY=1;entryDx=0;entryDy=0;exitX=0.5;exitY=0;exitDx=0;exitDy=0;" edge="1" parent="1" source="xBQm6iWofpUOaXLiv4rK-57" target="xBQm6iWofpUOaXLiv4rK-27">
          <mxGeometry width="50" height="50" relative="1" as="geometry">
            <mxPoint x="240" y="505" as="sourcePoint" />
            <mxPoint x="330" y="420" as="targetPoint" />
          </mxGeometry>
        </mxCell>
        <mxCell id="xBQm6iWofpUOaXLiv4rK-64" value="" style="endArrow=classic;startArrow=classic;html=1;rounded=0;exitX=0.5;exitY=0;exitDx=0;exitDy=0;entryX=0.5;entryY=1;entryDx=0;entryDy=0;" edge="1" parent="1" source="xBQm6iWofpUOaXLiv4rK-60" target="xBQm6iWofpUOaXLiv4rK-27">
          <mxGeometry width="50" height="50" relative="1" as="geometry">
            <mxPoint x="580" y="452" as="sourcePoint" />
            <mxPoint x="320" y="410" as="targetPoint" />
          </mxGeometry>
        </mxCell>
        <mxCell id="xBQm6iWofpUOaXLiv4rK-72" value="" style="rounded=1;whiteSpace=wrap;html=1;fillColor=#EEE8AA;" vertex="1" parent="1">
          <mxGeometry x="205" y="630" width="230" height="50" as="geometry" />
        </mxCell>
        <mxCell id="xBQm6iWofpUOaXLiv4rK-71" value="" style="shape=image;verticalLabelPosition=bottom;labelBackgroundColor=default;verticalAlign=top;aspect=fixed;imageAspect=0;image=https://upload.wikimedia.org/wikipedia/commons/thumb/7/71/RabbitMQ_logo.svg/1280px-RabbitMQ_logo.svg.png;" vertex="1" parent="1">
          <mxGeometry x="215.39999999999998" y="640" width="209.6" height="32.83" as="geometry" />
        </mxCell>
        <mxCell id="xBQm6iWofpUOaXLiv4rK-75" value="" style="endArrow=classic;startArrow=classic;html=1;rounded=0;entryX=0.5;entryY=1;entryDx=0;entryDy=0;" edge="1" parent="1" target="xBQm6iWofpUOaXLiv4rK-60">
          <mxGeometry width="50" height="50" relative="1" as="geometry">
            <mxPoint x="260" y="630" as="sourcePoint" />
            <mxPoint x="220" y="580" as="targetPoint" />
          </mxGeometry>
        </mxCell>
        <mxCell id="xBQm6iWofpUOaXLiv4rK-76" value="" style="endArrow=classic;html=1;rounded=0;exitX=0.5;exitY=1;exitDx=0;exitDy=0;entryX=0.75;entryY=0;entryDx=0;entryDy=0;" edge="1" parent="1" source="xBQm6iWofpUOaXLiv4rK-57" target="xBQm6iWofpUOaXLiv4rK-72">
          <mxGeometry width="50" height="50" relative="1" as="geometry">
            <mxPoint x="240" y="590" as="sourcePoint" />
            <mxPoint x="290" y="540" as="targetPoint" />
          </mxGeometry>
        </mxCell>
        <mxCell id="xBQm6iWofpUOaXLiv4rK-77" value="&lt;font style=&quot;font-size: 14px;&quot; color=&quot;#ffffff&quot;&gt;&amp;nbsp; &amp;nbsp; &amp;nbsp; &amp;nbsp;PaymentAPI&lt;/font&gt;" style="rounded=1;whiteSpace=wrap;html=1;fillColor=#00BFFF;" vertex="1" parent="1">
          <mxGeometry x="154.39999999999998" y="750" width="140" height="60" as="geometry" />
        </mxCell>
        <mxCell id="xBQm6iWofpUOaXLiv4rK-78" value="" style="shape=image;verticalLabelPosition=bottom;labelBackgroundColor=default;verticalAlign=top;aspect=fixed;imageAspect=0;image=https://upload.wikimedia.org/wikipedia/commons/thumb/e/ee/.NET_Core_Logo.svg/1200px-.NET_Core_Logo.svg.png;" vertex="1" parent="1">
          <mxGeometry x="164.39999999999998" y="765" width="30" height="30" as="geometry" />
        </mxCell>
        <mxCell id="xBQm6iWofpUOaXLiv4rK-80" value="&lt;font style=&quot;font-size: 14px;&quot; color=&quot;#ffffff&quot;&gt;&amp;nbsp; &amp;nbsp; &amp;nbsp; &amp;nbsp;EmailAPI&lt;/font&gt;" style="rounded=1;whiteSpace=wrap;html=1;fillColor=#00BFFF;" vertex="1" parent="1">
          <mxGeometry x="335.2" y="750" width="140" height="60" as="geometry" />
        </mxCell>
        <mxCell id="xBQm6iWofpUOaXLiv4rK-81" value="" style="shape=image;verticalLabelPosition=bottom;labelBackgroundColor=default;verticalAlign=top;aspect=fixed;imageAspect=0;image=https://upload.wikimedia.org/wikipedia/commons/thumb/e/ee/.NET_Core_Logo.svg/1200px-.NET_Core_Logo.svg.png;" vertex="1" parent="1">
          <mxGeometry x="345.2" y="765" width="30" height="30" as="geometry" />
        </mxCell>
        <mxCell id="xBQm6iWofpUOaXLiv4rK-82" value="" style="shape=image;verticalLabelPosition=bottom;labelBackgroundColor=default;verticalAlign=top;aspect=fixed;imageAspect=0;image=https://clipart-library.com/images/6cro4BBEi.png;" vertex="1" parent="1">
          <mxGeometry x="450.4" y="780" width="50" height="50" as="geometry" />
        </mxCell>
        <mxCell id="xBQm6iWofpUOaXLiv4rK-83" value="" style="endArrow=classic;startArrow=classic;html=1;rounded=0;entryX=0.25;entryY=1;entryDx=0;entryDy=0;exitX=0.5;exitY=0;exitDx=0;exitDy=0;" edge="1" parent="1" source="xBQm6iWofpUOaXLiv4rK-77" target="xBQm6iWofpUOaXLiv4rK-72">
          <mxGeometry width="50" height="50" relative="1" as="geometry">
            <mxPoint x="515" y="795" as="sourcePoint" />
            <mxPoint x="485" y="720" as="targetPoint" />
          </mxGeometry>
        </mxCell>
        <mxCell id="xBQm6iWofpUOaXLiv4rK-85" value="" style="endArrow=classic;html=1;rounded=0;entryX=0.5;entryY=0;entryDx=0;entryDy=0;exitX=0.75;exitY=1;exitDx=0;exitDy=0;" edge="1" parent="1" source="xBQm6iWofpUOaXLiv4rK-72" target="xBQm6iWofpUOaXLiv4rK-80">
          <mxGeometry width="50" height="50" relative="1" as="geometry">
            <mxPoint x="320" y="700" as="sourcePoint" />
            <mxPoint x="237.6" y="775" as="targetPoint" />
          </mxGeometry>
        </mxCell>
        <mxCell id="xBQm6iWofpUOaXLiv4rK-90" value="" style="verticalLabelPosition=bottom;shadow=0;dashed=0;align=center;html=1;verticalAlign=top;strokeWidth=1;shape=mxgraph.mockup.misc.mail2;strokeColor=#999999;" vertex="1" parent="1">
          <mxGeometry x="454.35" y="740" width="42.1" height="25" as="geometry" />
        </mxCell>
        <mxCell id="xBQm6iWofpUOaXLiv4rK-94" value="" style="shape=image;verticalLabelPosition=bottom;labelBackgroundColor=default;verticalAlign=top;aspect=fixed;imageAspect=0;image=https://www.freeiconspng.com/thumbs/credit-card-icon-png/credit-card-black-png-0.png;" vertex="1" parent="1">
          <mxGeometry x="260" y="727.5" width="55" height="55" as="geometry" />
        </mxCell>
        <mxCell id="xBQm6iWofpUOaXLiv4rK-99" value="" style="shape=image;verticalLabelPosition=bottom;labelBackgroundColor=default;verticalAlign=top;aspect=fixed;imageAspect=0;image=https://pbs.twimg.com/profile_images/1309117717987889162/zllztgki_400x400.png;" vertex="1" parent="1">
          <mxGeometry x="511" y="210" width="40" height="40" as="geometry" />
        </mxCell>
      </root>
    </mxGraphModel>
  </diagram>
</mxfile>
